<?xml version="1.0" encoding="UTF-8"?>
<!DOCTYPE svg PUBLIC "-//W3C//DTD SVG 1.1//EN" "http://www.w3.org/Graphics/SVG/1.1/DTD/svg11.dtd">
<!-- Creator: CorelDRAW X7 -->
<svg xmlns="http://www.w3.org/2000/svg" xml:space="preserve" width="3.69479in" height="3.1705in" version="1.1" style="shape-rendering:geometricPrecision; text-rendering:geometricPrecision; image-rendering:optimizeQuality; fill-rule:evenodd; clip-rule:evenodd"
viewBox="0 0 3592 3083"
 xmlns:xlink="http://www.w3.org/1999/xlink">
 <defs>
  <style type="text/css">
   <![CDATA[
    .str1 {stroke:black;stroke-width:40.5099}
    .str0 {stroke:black;stroke-width:81.0197}
    .str2 {stroke:black;stroke-width:2.9168}
    .fil0 {fill:none}
    .fil1 {fill:red}
   ]]>
  </style>
 </defs>
 <g id="Layer_x0020_1">
  <metadata id="CorelCorpID_0Corel-Layer"/>
  <g id="_598127136">
   <path class="fil0 str0" d="M250 2215c1479,1613 2890,448 2980,0"/>
   <path class="fil0 str0" d="M158 2381c210,-377 236,-193 236,-193"/>
   <path class="fil0 str0" d="M3107 2122c332,175 172,201 172,201"/>
  </g>
  <path class="fil1 str0" d="M2874 2680c-9,-541 48,-681 -63,-839 -158,-227 -502,-271 -703,-165 -87,46 -257,136 -395,452 -59,135 -127,639 -411,817 -58,36 400,49 488,52l358 13 404 -131 322 -199z"/>
  <path class="fil0 str1" d="M2068 2837c20,-147 149,-359 172,-448 42,-164 73,-293 73,-293"/>
  <path class="fil1 str2" d="M414 965c-1,98 -18,163 -52,196 -13,13 -28,19 -45,17 -17,-2 -33,-12 -48,-29 -20,-23 -41,-67 -64,-132 -13,-35 -22,-56 -28,-63 -6,-7 -12,-8 -17,-3 -3,3 -5,8 -7,16 -2,7 -3,16 -4,27 -1,10 -1,21 -1,34 -1,12 0,24 0,38l1 38c1,17 5,32 13,44 13,22 25,40 37,57 9,12 22,28 39,47l-52 82c-27,-27 -47,-47 -59,-61 -30,-35 -54,-72 -73,-110 -20,-38 -37,-85 -54,-140l60 -87c23,59 43,104 60,134 -1,-72 2,-125 8,-159 7,-34 17,-59 32,-74 11,-10 23,-14 37,-12 14,1 26,8 37,21 17,20 38,63 62,128 16,44 28,71 37,81 11,13 22,15 32,5 14,-15 20,-59 17,-132l32 37zm373 -219c-12,52 -35,99 -68,141 16,77 18,143 6,197 -11,54 -33,92 -67,112 -19,12 -37,15 -55,9 -18,-5 -32,-18 -43,-38 -15,-27 -17,-59 -6,-94 11,-35 39,-80 82,-133l-25 -84c-8,41 -17,73 -26,96 -10,23 -23,40 -40,50 -20,12 -41,12 -64,0 -24,-12 -44,-34 -61,-66 -28,-52 -35,-112 -23,-180 13,-67 40,-114 82,-140 22,-14 48,-16 77,-6 9,-11 20,-26 32,-44l19 -28 8 -5c7,35 15,69 26,101l69 212c25,-33 43,-81 53,-144l24 44zm-222 153c16,-11 26,-30 27,-60 2,-29 -3,-62 -13,-100 -10,-37 -19,-62 -26,-74 -6,-12 -14,-21 -24,-25 -10,-4 -19,-4 -27,1 -25,16 -37,47 -37,95 1,48 12,91 32,128 9,18 20,30 32,36 13,6 24,6 36,-1zm82 79c-61,76 -81,134 -60,172 6,12 14,19 24,22 11,4 21,2 31,-4 17,-10 25,-31 26,-62 0,-31 -7,-73 -21,-128zm435 -360c-19,48 -38,86 -58,113 -19,27 -44,48 -75,61 -34,15 -66,16 -97,1 -30,-14 -52,-40 -67,-79 -22,-57 -23,-117 -4,-180 19,-63 51,-104 97,-124 23,-10 45,-12 64,-5 19,7 32,20 41,42 21,56 -17,125 -114,209 30,49 67,64 109,45 17,-7 31,-19 42,-36 12,-16 27,-47 44,-93l18 46zm-227 12c57,-48 75,-98 55,-150 -10,-26 -24,-35 -41,-27 -17,7 -27,28 -32,61 -5,34 1,72 18,116zm834 -153c-26,43 -50,75 -70,98 -21,23 -42,37 -65,42 -18,4 -33,0 -46,-11 -13,-10 -21,-27 -25,-49 -6,-31 -7,-72 -2,-122 6,-51 7,-82 5,-92 -2,-9 -7,-12 -16,-10 -2,0 -6,2 -9,5 -4,3 -8,7 -12,12 -4,5 -9,11 -14,18 -4,7 -9,15 -14,23 -6,9 -11,19 -17,29 -9,18 -13,32 -13,42l-1 65 -4 106 -98 43 4 -186c1,-13 0,-33 0,-59 -1,-25 -2,-41 -3,-46 -2,-9 -6,-13 -12,-12 -2,0 -4,2 -8,5 -3,3 -7,7 -11,12 -5,6 -11,13 -16,20 -6,9 -12,18 -19,29 -7,11 -14,24 -21,38 -10,18 -14,38 -13,59 0,26 2,48 4,68 2,20 5,42 9,66l-85 43c-8,-33 -15,-60 -19,-82 -10,-53 -14,-99 -12,-140 3,-42 11,-91 24,-148l92 -40c-8,49 -12,97 -13,143 54,-106 101,-163 139,-171 14,-4 26,0 38,10 11,11 18,25 22,45 2,9 4,27 6,52 35,-59 62,-97 78,-116 17,-20 34,-31 50,-35 15,-3 28,1 40,11 12,11 19,26 23,45 6,31 6,72 0,124 -6,51 -8,85 -5,100 3,16 10,23 21,21 7,-2 16,-9 27,-21 10,-13 27,-40 52,-83l9 49zm237 -417c-2,70 -28,104 -76,102 -24,-1 -43,-10 -59,-26 16,-25 30,-53 40,-85 21,16 38,24 51,24 15,1 30,-4 44,-15zm-9 447c-67,68 -116,102 -147,100 -18,-1 -32,-11 -44,-30 -11,-20 -16,-44 -15,-73 3,-62 26,-147 69,-256l105 -18 5 0 -46 135c-19,56 -29,96 -30,120 -1,10 1,18 5,24 4,6 8,9 14,10 11,0 22,-4 33,-11 11,-8 29,-25 53,-51l-2 50zm274 23c-39,33 -74,57 -103,72 -30,15 -57,21 -82,19 -29,-3 -52,-17 -68,-43 -16,-25 -22,-59 -19,-99 5,-61 23,-134 54,-217 31,-83 68,-160 108,-229l107 -32c4,-1 6,-1 8,-1 8,1 14,8 18,20 4,13 5,30 4,51 -5,59 -22,116 -52,169 -30,54 -75,109 -134,168 -4,30 -7,51 -8,62 -2,25 1,46 9,61 7,16 18,25 33,26 14,1 30,-3 48,-13 17,-10 44,-31 81,-64l-4 50zm-143 -185c38,-38 69,-81 95,-130 25,-50 39,-93 42,-129 1,-11 0,-20 -2,-27 -3,-7 -6,-10 -11,-11 -10,0 -27,25 -50,77 -23,52 -48,126 -74,220zm302 235c-20,38 -36,62 -48,73 -12,10 -28,14 -48,9 -24,-5 -45,-20 -64,-43 18,-20 38,-51 59,-92 15,20 25,32 32,38 8,6 17,11 28,13 10,2 24,3 41,2zm318 102c-44,22 -83,35 -116,41 -33,5 -64,2 -94,-10 -33,-13 -57,-35 -71,-67 -13,-32 -14,-65 -1,-101 20,-59 58,-105 115,-139 57,-34 109,-42 155,-24 23,9 39,23 49,42 10,20 11,40 3,62 -2,7 -6,13 -10,15 -4,3 -10,5 -19,6l-52 5c-6,1 -11,0 -14,-1 -3,-1 -4,-4 -2,-10 1,-2 4,-9 10,-20 5,-12 9,-19 10,-22 4,-12 5,-23 3,-32 -2,-9 -8,-15 -15,-19 -19,-7 -41,1 -67,25 -26,23 -46,54 -59,92 -11,33 -13,62 -5,88 8,25 24,42 49,52 20,8 42,10 65,4 23,-5 50,-17 83,-34l-17 47zm341 175c-18,5 -34,7 -48,6 -14,-2 -24,-4 -31,-8 -17,-9 -31,-26 -42,-50 -62,37 -115,44 -161,19 -28,-15 -45,-39 -52,-71 -7,-32 -2,-67 16,-105 28,-60 72,-100 132,-122 60,-21 117,-17 172,12 21,12 35,22 42,32 8,10 11,19 10,27 -1,8 -4,17 -8,27 -24,49 -65,103 -123,161 6,19 16,32 30,39 16,9 45,5 85,-12l-22 45zm-16 -286c-3,-3 -8,-7 -15,-11 -31,-17 -65,-12 -100,14 -34,26 -63,63 -86,111 -12,27 -18,50 -17,69 0,19 8,32 22,39 17,10 44,3 80,-21 -8,-43 -4,-83 13,-119 20,-42 54,-69 103,-82zm518 676c-48,6 -86,9 -115,7 -30,-1 -54,-9 -72,-24 -15,-11 -22,-26 -23,-43 -1,-18 5,-35 17,-53 18,-26 46,-53 86,-82 39,-30 61,-49 67,-57 5,-7 4,-14 -3,-20 -2,-1 -6,-3 -10,-3 -4,-2 -10,-2 -16,-2 -6,-1 -14,0 -22,1 -8,0 -17,2 -26,3 -10,2 -20,4 -31,7 -18,4 -31,9 -39,16l-46 42 -77 67 -95 -50 134 -119c10,-9 23,-22 41,-40 17,-17 27,-28 30,-32 6,-8 6,-14 1,-18 -2,-1 -4,-2 -8,-3 -5,-1 -10,-1 -17,-1 -7,-1 -15,0 -24,1 -10,1 -21,2 -33,4 -13,2 -26,4 -40,7 -20,5 -37,14 -51,29 -18,17 -33,33 -45,48 -13,15 -26,32 -40,51l-86 -40c17,-28 32,-51 44,-69 31,-43 61,-77 92,-102 30,-25 70,-52 118,-79l90 47c-40,27 -77,55 -109,84 110,-26 181,-26 212,-1 11,9 17,22 17,37 0,16 -5,32 -17,48 -5,7 -16,20 -32,39 64,-10 109,-15 134,-14 24,0 43,6 56,17 12,10 19,23 19,39 0,17 -5,33 -16,49 -18,25 -47,52 -87,81 -41,29 -65,50 -74,63 -9,13 -9,23 -1,30 6,5 17,7 33,7 16,0 46,-4 92,-12l-28 40z"/>
 </g>
</svg>
